<?xml version="1.0" encoding="iso-8859-1"?>
<!-- Generator: Adobe Illustrator 19.0.0, SVG Export Plug-In . SVG Version: 6.00 Build 0)  -->
<svg version="1.1" id="Layer_1" xmlns="http://www.w3.org/2000/svg" xmlns:xlink="http://www.w3.org/1999/xlink" x="0px" y="0px"
	 viewBox="0 0 503.936 503.936" style="enable-background:new 0 0 503.936 503.936;" xml:space="preserve">
<g>
	<g>
		<path d="M369.476,16.952c-53.915,0-94.772,22.867-117.508,64.157c-22.736-41.29-63.593-64.157-117.508-64.157
			c-132.399,0-179.695,158.883-84.012,265.183c14.158,15.73,52.535,55.694,106.701,111.389
			c19.37,19.917,39.584,40.635,59.255,60.751c13.146,13.443,25.842,26.401,29.58,30.202c3.289,3.345,8.681,3.345,11.97,0
			c3.738-3.801,16.434-16.759,29.58-30.202c19.671-20.115,39.885-40.834,59.255-60.751c54.165-55.695,92.542-95.659,106.701-111.389
			C549.171,175.835,501.875,16.952,369.476,16.952z M441.012,270.904c-13.946,15.494-52.297,55.431-106.258,110.916
			c-19.359,19.905-39.561,40.612-59.223,60.718c-8.966,9.168-17.722,18.111-23.563,24.069c-5.84-5.958-14.597-14.901-23.563-24.069
			c-19.661-20.105-39.864-40.813-59.223-60.718c-53.961-55.485-92.312-95.421-106.258-110.916
			C-23.842,174.51,18.062,33.739,134.46,33.739c54.003,0,91.931,24.957,109.695,70.214c0.003,0.007,0.006,0.012,0.009,0.019
			c0.004,0.01,0.007,0.021,0.011,0.032l31.517,78.792l-63.329,63.234c-2.656,2.652-3.228,6.744-1.402,10.023l42.068,75.541
			c2.255,4.05,7.367,5.505,11.417,3.249s5.505-7.367,3.249-11.417l-38.982-69.999l62.76-62.666c2.378-2.374,3.11-5.937,1.863-9.057
			l-32.309-80.771c18.251-43.338,55.666-67.193,108.45-67.193C485.874,33.739,527.778,174.51,441.012,270.904z"/>
	</g>
</g>
<g>
</g>
<g>
</g>
<g>
</g>
<g>
</g>
<g>
</g>
<g>
</g>
<g>
</g>
<g>
</g>
<g>
</g>
<g>
</g>
<g>
</g>
<g>
</g>
<g>
</g>
<g>
</g>
<g>
</g>
</svg>
