<?xml version="1.0" standalone="no"?>
<!DOCTYPE svg PUBLIC "-//W3C//DTD SVG 20010904//EN"
 "http://www.w3.org/TR/2001/REC-SVG-20010904/DTD/svg10.dtd">
<svg version="1.0" xmlns="http://www.w3.org/2000/svg"
 width="225.000000pt" height="225.000000pt" viewBox="0 0 225.000000 225.000000"
 preserveAspectRatio="xMidYMid meet">
<metadata>
Created by potrace 1.14, written by Peter Selinger 2001-2017
</metadata>
<g transform="translate(0.000000,225.000000) scale(0.100000,-0.100000)"
fill="#000000" stroke="none">
<path d="M955 2111 c-89 -26 -131 -46 -199 -95 -66 -48 -149 -129 -146 -142 3
-17 22 -34 31 -28 14 8 11 -1 -18 -63 -16 -34 -29 -51 -31 -42 -7 37 -62 24
-68 -15 -1 -6 -10 -38 -20 -71 -13 -42 -18 -91 -18 -165 0 -122 16 -185 75
-302 21 -42 39 -87 39 -98 0 -42 -28 -78 -75 -95 -65 -25 -116 -15 -189 36
-51 36 -70 44 -118 47 -48 4 -64 0 -100 -21 -56 -32 -90 -92 -93 -161 -1 -28
-7 -62 -14 -75 -21 -39 -10 -133 22 -174 50 -65 154 -91 223 -54 l32 16 25
-38 c29 -44 96 -81 145 -81 40 0 99 24 128 51 12 11 30 38 39 60 14 31 30 45
69 64 28 13 52 22 55 20 10 -11 -82 -175 -133 -238 -31 -37 -61 -85 -67 -106
-21 -71 8 -144 77 -197 32 -25 47 -29 98 -29 46 0 70 6 97 23 25 15 52 22 84
22 67 0 127 36 154 93 25 51 27 116 6 157 -14 27 -13 34 14 102 16 40 33 86
38 103 l10 30 7 -30 c4 -17 21 -63 37 -103 27 -68 28 -75 14 -102 -21 -41 -19
-106 6 -157 27 -57 87 -93 154 -93 29 0 60 -7 79 -19 71 -43 153 -38 212 13
38 32 38 33 39 111 1 50 6 80 13 83 16 5 -5 43 -63 112 -44 52 -133 215 -124
225 3 2 27 -7 55 -20 39 -19 55 -33 69 -64 9 -22 27 -49 39 -60 29 -27 88 -51
128 -51 49 0 116 37 145 81 24 37 26 38 52 25 64 -32 134 -26 194 16 57 40 86
153 55 211 -6 12 -12 45 -13 74 -3 68 -39 131 -95 162 -34 19 -52 23 -98 19
-48 -3 -67 -11 -118 -47 -73 -51 -124 -61 -189 -36 -47 17 -75 53 -75 95 0 11
18 56 39 98 61 120 75 180 74 307 0 91 -5 124 -27 192 -33 100 -106 213 -183
282 -67 60 -184 123 -269 145 -84 22 -250 20 -329 -3z m655 -1741 c0 -5 -7 -7
-15 -4 -8 4 -15 8 -15 10 0 2 7 4 15 4 8 0 15 -4 15 -10z"/>
</g>
</svg>
